<svg width="1404" height="1072" viewBox="0 0 1404 472" xmlns="http://www.w3.org/2000/svg" xmlns:xlink="http://www.w3.org/1999/xlink"  version="1.2" baseProfile="tiny"><title>Konvergensvinkel pluss mer</title>
<g><path fill="none" stroke="#000000" stroke-width="4" stroke-linecap="round" stroke-linejoin="round" d="M657.873 62.3045 L655.866 59.9175 L654.595 57.3159 L654.925 56.8972 L655.475 57.4194 L657.99 61.5782 "/></g><g><path fill="none" stroke="#000000" stroke-width="4" stroke-linecap="round" stroke-linejoin="round" d="M660.348 117.187 L658.221 119.612 L656.316 123.119 L654.576 128.597 L653.632 134.545 L653.65 136.473 L655.11 142.51 L657.645 148.841 "/></g><g><path fill="none" stroke="#000000" stroke-width="4" stroke-linecap="round" stroke-linejoin="round" d="M663.75 173.924 L661.77 180.715 L659.164 197.095 L656.843 207.665 L656.045 213.825 L656.316 217.906 "/></g><g><path fill="none" stroke="#000000" stroke-width="4" stroke-linecap="round" stroke-linejoin="round" d="M660.302 262.946 L657.342 268.96 L655.795 274.225 L654.315 282.197 L653.858 287.199 L653.717 296.636 L654.042 300.799 L656.635 313.43 "/></g><g><path fill="none" stroke="#000000" stroke-width="4" stroke-linecap="round" stroke-linejoin="round" d="M659.415 355.511 L657.375 363.862 L656.985 370.253 L657.41 396.013 L658.141 403.334 L658.776 406.263 "/></g><g><path fill="none" stroke="#000000" stroke-width="4" stroke-linecap="round" stroke-linejoin="round" d="M663.868 438.576 L662.202 444.283 L661.556 449.819 L661.777 462.406 L660.47 472.776 L660.592 477.618 L661.477 485.531 "/></g><g><path fill="none" stroke="#000000" stroke-width="4" stroke-linecap="round" stroke-linejoin="round" d="M660.687 531.967 L658.551 540.253 L657.299 550.212 L656.988 558.278 L657.233 580.41 L655.729 599.646 L656.043 603.939 L656.916 606.924 "/></g><g><path fill="none" stroke="#000000" stroke-width="4" stroke-linecap="round" stroke-linejoin="round" d="M665.306 655.732 L664.479 661.551 L664.112 669.729 L664.448 680.796 L665.255 685.843 "/></g><g><path fill="none" stroke="#000000" stroke-width="4" stroke-linecap="round" stroke-linejoin="round" d="M737.746 91.3975 L730.859 88.5201 L727.526 86.259 L725.798 84.4544 L724.783 82.4305 L724.253 80.1781 L724.867 75.4618 L735.664 52.8949 L737.677 49.5582 L739.183 47.7084 L743.193 43.8539 L744.621 42.8712 L747.02 41.9097 L748.92 41.8584 L750.591 42.4708 L752.741 44.8971 L753.257 46.1513 L753.55 48.9274 L752.925 54.9656 L749.698 67.3146 L746.234 75.8357 L743.396 79.9287 L740.793 82.197 L739.366 83.024 L737.012 83.9078 L735.454 83.9176 L734.155 83.3525 L733.149 82.1347 "/></g><g><path fill="none" stroke="#000000" stroke-width="4" stroke-linecap="round" stroke-linejoin="round" d="M758.87 73.4122 L757.102 87.3904 L754.567 98.2288 L751.966 103.691 L746.371 110.454 L744.224 112.076 L740.703 113.054 L739.464 112.418 L738.697 110.048 L739.491 102.547 L743.694 87.372 "/></g><g><path fill="none" stroke="#000000" stroke-width="4" stroke-linecap="round" stroke-linejoin="round" d="M762.735 53.5453 L764.427 54.4516 L766.159 54.864 L766.973 54.5933 L770.115 54.7649 L770.82 55.107 L773.59 55.3696 L774.189 56.325 L774.396 57.9937 L773.528 63.3659 L770.661 70.1867 L767.101 75.4714 L765.533 77.0205 L755.574 83.537 "/></g><g><path fill="none" stroke="#000000" stroke-width="4" stroke-linecap="round" stroke-linejoin="round" d="M791.019 34.4633 L778.189 75.8336 L775.737 80.7471 L773.891 82.1758 L772.661 81.7306 L773.467 81.0918 L777.404 75.1233 L790.802 59.2434 L792.483 57.6346 L793.994 56.7054 L795.282 56.526 L796.052 56.8465 L797.361 58.3402 L798.42 61.352 L799.222 67.7676 L799.016 71.2117 L797.823 76.0596 L795.754 81.0833 L794.002 84.7173 L789.959 91.3246 "/></g><g><path fill="none" stroke="#000000" stroke-width="4" stroke-linecap="round" stroke-linejoin="round" d="M802.262 45.3516 L802.721 40.853 L803.709 39.2451 L804.491 38.7335 L805.877 38.7467 L807.677 39.6 L810.458 41.8409 L811.835 43.4555 "/></g><g><path fill="none" stroke="#000000" stroke-width="4" stroke-linecap="round" stroke-linejoin="round" d="M821.457 62.3196 L819.082 65.6177 L813.047 76.9802 L817.262 78.3646 L818.814 79.508 L818.931 82.0384 L817.967 85.3782 L813.271 94.4739 L808.665 101.846 L807.82 102.789 L807.072 103.058 L806.773 101.944 "/></g><g><path fill="none" stroke="#000000" stroke-width="4" stroke-linecap="round" stroke-linejoin="round" d="M843.642 35.4964 L846.519 34.99 L847.789 36.0152 L848.097 37.0135 L848.081 39.5679 L847.441 43.3666 L843.7 57.6031 L840.556 71.4634 L838.349 79.2579 L836.948 82.498 L835.801 84.294 L834.348 86.0364 L831.307 88.6177 L834.439 85.6252 L840.234 78.7493 L851.837 69.3603 "/></g><g><path fill="none" stroke="#000000" stroke-width="4" stroke-linecap="round" stroke-linejoin="round" d="M848.937 72.1555 L847.774 75.959 L847.432 79.2808 L847.753 80.6713 L848.935 83.0292 L850.301 84.6236 L852.423 85.3047 L857.7 84.4606 "/></g><g><path fill="none" stroke="#000000" stroke-width="4" stroke-linecap="round" stroke-linejoin="round" d="M932.073 73.4115 L929.363 72.398 L927.192 72.4963 L923.21 74.0876 L917.251 77.5689 L914.295 80.2577 L911.01 84.4712 L909.227 88.2973 L909.024 91.1395 L909.775 92.7873 L911.203 93.57 L913.257 93.7837 L915.303 93.3445 L918.555 91.7033 L926.913 85.9997 L929.066 85.2911 L931.811 89.5723 L932.905 90.7698 L934.404 91.6311 L935.315 91.3103 "/></g><g><path fill="none" stroke="#000000" stroke-width="4" stroke-linecap="round" stroke-linejoin="round" d="M953.14 47.6551 L952.771 47.2492 L952.058 48.273 L951.109 51.624 L946.359 74.6655 L944.184 81.3035 L943.776 84.8736 L943.93 85.7317 L944.503 86.3322 L945.751 86.1238 L949.348 84.2823 L952.555 81.4917 L958.229 75.3083 L964.789 69.7862 "/></g><g><path fill="none" stroke="#000000" stroke-width="4" stroke-linecap="round" stroke-linejoin="round" d="M955.128 75.355 L954.233 76.7434 L953.757 78.367 L953.602 81.8882 L954.101 86.6738 L955.355 89.6354 L957.073 91.4157 L958.511 92.1607 L960.174 92.0929 L963.513 90.4027 "/></g><g><path fill="none" stroke="#000000" stroke-width="4" stroke-linecap="round" stroke-linejoin="round" d="M995.148 70.8374 L992.863 71.9412 L983.866 78.2683 L982.207 80.211 L982.267 80.8677 L983.621 80.9061 L987.366 82.9906 L988.899 84.6935 L989.119 85.8256 L988.904 86.8733 L987.05 90.4632 L983.851 94.657 L979.65 98.5417 L973.288 102.404 L971.179 103.292 L972.123 102.253 "/></g><g><path fill="none" stroke="#000000" stroke-width="4" stroke-linecap="round" stroke-linejoin="round" d="M987.512 96.1605 L1000.95 92.3085 L1008.09 89.537 L1011.84 87.7636 L1013.59 86.1407 L1014.24 85.1198 L1012.26 86.0625 L1008.93 88.331 L1007.01 90.3071 L1005.15 93.1342 L1004.6 95.0897 L1004.98 97.447 L1006.66 99.0503 L1007.6 99.4618 L1010.55 100.124 L1014.47 100.525 L1021.88 98.1872 L1035.43 92.8688 "/></g><g><path fill="none" stroke="#000000" stroke-width="4" stroke-linecap="round" stroke-linejoin="round" d="M662.847 697.391 L662.635 698.084 L662.773 697.555 L664.21 696.325 L666.029 693.815 L670.05 685.562 L675.387 676.228 L683.556 657.495 L691.648 636.215 L696.163 627.838 L699.133 621.431 L706.902 601.356 L710.853 592.24 L714.92 581.357 L719.532 572.326 L724.679 563.287 L730.92 550.851 L742.014 524.273 L745.674 516.953 L750.594 508.465 L753.244 504.702 L757.235 497.288 L771.742 467.674 L777.738 456.18 L781.766 447.555 L787.275 432.942 L793.341 415.077 L805.014 388.275 L809.034 375.618 L815.061 361.443 L822.151 342.252 L826.323 333.392 L830.504 323.045 L833.747 313.3 L836.525 307.757 L839.33 300.643 L845.617 290.091 L851.721 277.549 L851.458 276.89 L850.988 276.777 L849.976 276.827 L848.753 277.38 "/></g><g><path fill="none" stroke="#000000" stroke-width="4" stroke-linecap="round" stroke-linejoin="round" d="M663.093 698.238 L662.925 698.439 L662.276 698.148 L662.131 698.477 L658.911 696.141 L657.461 694.713 L653.343 689.422 L646.385 679.22 L639.9 671.533 L635.043 666.415 L629.416 659.309 L623.546 650.424 L618.274 641.728 L605.681 623.732 L598.041 613.257 L572.132 579.853 L563.332 567.829 L560.382 563.116 L555.479 556.817 L548.378 541.365 L544.747 531.826 L542.399 528.432 L538.183 523.328 L535.792 519.755 L530.984 511.121 L528.308 502.62 L523.744 493.073 L520.705 482.948 L519.827 476.83 L518.059 469.001 L514.745 457.289 L513.586 449.539 L511.11 437.337 L503.813 416.984 L498.534 406.847 L494.418 394.942 L493.011 389.934 "/></g><g><path fill="none" stroke="#000000" stroke-width="4" stroke-linecap="round" stroke-linejoin="round" d="M446.519 301.688 L445.1 303.581 L445.441 303.312 L446.456 303.641 L450.356 307.259 L453.04 311.001 L457.407 318.511 L468.413 340.52 L477.595 361.356 L483.969 376.947 L489.975 393.424 L493.036 403.152 L498.834 424.69 L506.261 445.215 L510.083 452.287 L514.207 458.186 L515.421 459.349 L517.149 460.087 L518.76 459.953 "/></g><g><path fill="none" stroke="#000000" stroke-width="4" stroke-linecap="round" stroke-linejoin="round" d="M887.612 283.635 L888.256 284.782 L889.202 285.502 L891.727 285.239 L894.894 283.525 L900.456 278.204 L904.148 273.795 L909.326 265.63 L911.538 261.207 L911.782 259.472 L911.433 259.208 L905.695 265.076 L902.141 270.089 L895.314 283.859 L893.382 289.562 L891.395 298.574 L891.362 301.769 L892.132 303.493 L893.466 304.349 L896.974 304.562 L900.914 302.597 L903.743 300.509 L909.934 293.359 "/></g><g><path fill="none" stroke="#000000" stroke-width="4" stroke-linecap="round" stroke-linejoin="round" d="M921.477 270.707 L921.018 270.732 L921.025 270.963 L922.032 271.418 L924.648 271.796 L930.7 271.087 L934.01 270.266 L939.8 266.924 "/></g><g><path fill="none" stroke="#000000" stroke-width="4" stroke-linecap="round" stroke-linejoin="round" d="M970.407 281.332 L969.485 281.671 L966.62 284.188 L961.769 289.284 L958.765 293.094 L957.954 295.168 L958.275 295.575 L959.682 295.025 L963.193 295.101 L967.841 294.592 L969.442 295.035 L969.917 295.605 L969.93 296.445 L968.011 300.916 L964.784 305.535 L961.482 309.2 L958.713 311.663 L956.962 312.697 L955.751 312.935 L954.615 312.987 L953.201 312.274 "/></g><g><path fill="none" stroke="#000000" stroke-width="4" stroke-linecap="round" stroke-linejoin="round" d="M986.717 273.474 L987.644 276.04 L988.739 281.717 L988.787 286.221 L988.126 291.443 L986.047 298.902 L983.618 305.094 L980.388 311.077 L979.127 312.352 L979.183 307.913 L980.109 305.836 L981.818 303.234 L985.409 299.369 L989.705 296.313 L996.708 293.283 L1001.61 292.956 L1002.71 293.445 L1003.14 293.998 L1002.43 296.568 L1001.47 298.597 L998.044 305.009 L996.865 306.61 L994.82 311.036 L991.956 315.742 L994.866 309.693 L998.591 303.678 L1000.03 302.278 L1003.1 298.292 L1007.25 294.473 L1012.37 290.848 L1015.14 289.835 L1017.11 289.443 L1022.02 289.293 L1023.39 289.395 L1023.9 290.285 "/></g><g><path fill="none" stroke="#000000" stroke-width="4" stroke-linecap="round" stroke-linejoin="round" d="M1022.13 294.992 L1017.49 298.642 L1013.26 303.487 L1010.57 308.217 L1009.18 311.675 L1008.82 314.543 L1009.06 315.333 L1010.29 316.723 L1011.62 317.336 L1012.83 317.523 L1015.9 316.794 L1019.38 314.197 L1028.37 304.124 L1031.96 301.792 L1033.02 302.197 L1033.18 306.068 L1032.23 308.963 L1031.56 310.083 L1031.36 310.275 L1031.12 310.022 "/></g><g><path fill="none" stroke="#000000" stroke-width="4" stroke-linecap="round" stroke-linejoin="round" d="M1023.14 264.809 L1024.11 261.825 L1024.99 260.351 L1026.74 258.107 L1027.26 257.697 L1027.78 257.733 L1028.36 259.596 L1028.33 262.875 L1027.14 267.833 "/></g><g><path fill="none" stroke="#000000" stroke-width="4" stroke-linecap="round" stroke-linejoin="round" d="M1047.79 270.796 L1045.09 274.486 L1042.42 280.623 L1039.96 289.541 L1039.26 293.454 L1039.21 297.898 L1039.74 299.926 L1041.29 301.894 L1044.68 303.136 L1047.71 303.132 L1050.56 302.149 L1053.42 300.058 L1054.63 299.564 L1059.18 293.97 L1061.65 290.413 L1063.14 285.818 L1063.8 279.278 L1059.66 287.152 L1055.91 295.705 L1054.39 301.428 L1054.11 304.635 L1054.24 306.286 L1055.62 308.433 L1057.45 309.61 L1061.07 310.117 L1065.86 309.331 L1068.69 308.276 L1070.53 307.326 L1073.95 304.606 L1081.87 295.826 "/></g><g><path fill="none" stroke="#000000" stroke-width="4" stroke-linecap="round" stroke-linejoin="round" d="M663.103 562.037 L662.402 561.377 L661.103 560.958 L661.749 561.479 L661.911 561.257 L664.268 561.99 L666.932 561.572 L667.985 561.723 "/></g><g><path fill="none" stroke="#000000" stroke-width="4" stroke-linecap="round" stroke-linejoin="round" d="M690.966 555.341 L690.921 555.703 L690.734 555.463 L691.729 556.581 L692.2 557.985 L693.462 563.273 L693.963 563.497 L694.35 563.222 "/></g><g><path fill="none" stroke="#000000" stroke-width="4" stroke-linecap="round" stroke-linejoin="round" d="M706.373 561.047 L706.774 566.861 L707.709 570.349 L709.162 573.293 L711.659 576.726 "/></g><g><path fill="none" stroke="#000000" stroke-width="4" stroke-linecap="round" stroke-linejoin="round" d="M668.946 563.734 L667.334 564.81 L666.471 564.605 L665.833 564.969 L665.379 564.643 L665.332 564.932 L665.518 562.706 L665.035 560.427 L665.094 560.97 L665.3 560.689 L665.881 561.056 L667.165 561.021 L667.838 560.514 L669.044 560.511 L669.379 559.935 L670.143 560.373 L670.673 560.154 L671.751 560.632 L672.349 560.414 L674.691 560.557 L680.975 561.437 L687.854 561.945 L689.632 562.604 L691.932 562.547 L693.169 563.165 L696.554 562.921 L697.829 563.577 L698.378 563.181 L700.035 562.915 L700.952 563.413 L702.425 562.895 L704.077 562.921 L706.165 565.073 L708.228 568.829 L709.75 573.541 L710.022 576.086 L709.959 582.285 L710.323 585.454 L710.039 587.299 L709.823 587.407 L709.536 586.809 L708.803 587.249 L708.645 587.784 L708.447 587.446 L708.736 587.791 L708.519 587.355 L708.72 587.374 "/></g><g><path fill="none" stroke="#000000" stroke-width="4" stroke-linecap="round" stroke-linejoin="round" d="M656.294 567.401 L653.122 567.226 L652.887 566.983 L653.534 567.317 L653.828 566.939 L654.957 567.216 L659.618 565.982 L670.224 562.375 L683.273 557.193 L688.777 556.099 L693.528 556.678 L695.743 557.895 L697.933 560.462 L700.536 565.207 L702.36 569.356 L702.999 570.009 L704.524 575.105 L704.262 576.393 L703.798 576.965 "/></g><g><path fill="none" stroke="#000000" stroke-width="4" stroke-linecap="round" stroke-linejoin="round" d="M706.286 541.148 L705.258 540.822 L704.502 541.09 L704.338 540.775 L704.017 541.033 L703.499 540.843 L703.581 537.408 L706.034 533.467 L709.371 530.413 L714.895 527.605 L723.449 524.433 L732.209 522.806 L736.648 522.392 L742.502 522.165 L752.344 522.472 L763.897 523.643 L767.71 526.134 L769.553 528.644 L769.628 531.569 L768.053 536.069 "/></g><g><path fill="none" stroke="#000000" stroke-width="4" stroke-linecap="round" stroke-linejoin="round" d="M700.84 520.293 L701.108 515.569 L700.876 515.306 L700.815 516.583 L702.099 523.548 L703.479 537.046 L704.18 548.91 L704.764 546.529 L707.49 543.844 L714.244 535.216 L719.037 530.542 L722.68 528.933 L730.584 529.428 "/></g><g><path fill="none" stroke="#000000" stroke-width="4" stroke-linecap="round" stroke-linejoin="round" d="M793.931 526.146 L792.795 526.411 L792.132 527.683 L792.721 546.118 L792.338 555.116 L791.82 558.922 L790.927 563.329 L789.406 566.76 L788.249 567.774 L787.906 567.383 L787.522 567.847 L787.272 567.391 L786.611 568.285 L786.088 567.974 L785.841 566.696 L786.256 565.1 L788.258 560.899 L791.428 555.574 L799.563 544.282 L810.382 531.031 "/></g><g><path fill="none" stroke="#000000" stroke-width="4" stroke-linecap="round" stroke-linejoin="round" d="M801.437 551.859 L805.746 558.132 L807.801 561.709 L808.822 565.315 L808.113 566.612 "/></g><g><path fill="none" stroke="#000000" stroke-width="4" stroke-linecap="round" stroke-linejoin="round" d="M826.353 550.52 L825.831 553.213 L823.666 556.543 L821.61 557.958 L820.331 559.291 L814.094 563.457 L810.764 564.863 L810.18 564.903 L810.259 564.356 L810.988 562.858 L812.068 558.376 L813.586 555.111 L814.913 552.87 L818.087 548.855 L820.749 546.646 L823.411 545.232 L825.755 544.625 L828.563 544.572 L831.181 545.588 L831.809 546.2 L831.83 547.979 L831.332 549.861 L829.435 554.74 L825.203 563.13 L823.64 565.698 L821.674 568.112 L821.369 568.249 L821.302 567.833 L821.903 566.065 "/></g><g><path fill="none" stroke="#000000" stroke-width="4" stroke-linecap="round" stroke-linejoin="round" d="M839.324 545.431 L841.973 555.892 L842.398 558.955 L842.037 560.977 L841.673 560.312 L841.972 559.252 L848.06 552.961 L851.157 550.346 L853.423 549.673 L854.39 548.911 L854.883 548.967 L857.269 547.857 "/></g><g><path fill="none" stroke="#000000" stroke-width="4" stroke-linecap="round" stroke-linejoin="round" d="M839.491 547.916 L839.329 544.721 L839.766 548.765 L839.703 554.346 L838.861 561.13 L839.158 560.586 L839.297 560.859 L840.163 560.085 L840.864 560.22 L842.946 558.349 L844.213 558.024 L849.244 552.791 L855.721 547.611 L859.333 545.787 L861.755 545.531 L862.496 545.866 L863.655 546.755 L864.136 547.816 L864.431 550.33 L864.285 553.056 L861.304 563.322 L861.526 563.441 L861.818 562.681 L862.407 562.302 L864.062 561.97 "/></g><g><path fill="none" stroke="#000000" stroke-width="4" stroke-linecap="round" stroke-linejoin="round" d="M879.574 549.782 L881.847 556.45 L883.418 563.378 L884.302 564.813 L885.053 565.082 L887.504 562.951 L889.957 559.754 L895.328 549.075 L896.88 544.723 L899.933 539.054 L900.737 538.073 "/></g><g><path fill="none" stroke="#000000" stroke-width="4" stroke-linecap="round" stroke-linejoin="round" d="M903.728 563.734 L905.605 563.156 L911.709 557.577 L915.709 550.439 L916.137 548.614 L916.054 547.882 L915.655 547.495 L914.845 547.661 L914.267 548.962 L913.46 551.703 L912.687 556.41 L912.496 560.177 L912.786 562.045 L913.604 563.79 L914.39 564.454 L915.204 564.549 L917.318 563.193 L923.007 555.638 L925.353 553.683 L926.033 553.792 L926.379 553.381 L927.293 554.621 L927.439 554.279 L928.224 556.973 L928.205 561.275 L927.249 567.623 L927.665 566.67 L931.164 562.123 L935.31 555.381 L938.313 551.802 L941.547 548.927 L944.029 547.186 L948.664 545.937 "/></g><g><path fill="none" stroke="#000000" stroke-width="4" stroke-linecap="round" stroke-linejoin="round" d="M956.046 554.529 L954.416 556.067 L951.979 556.789 L950.453 557.817 L947.408 561.871 L946.577 563.276 L946.45 564.14 L951.015 562.322 L952.023 561.296 L954.598 561.122 L957.802 561.885 L959.495 563.317 L960.242 564.624 L960.867 567.421 L960.293 572.127 L958.417 576.875 L957.338 579.023 L953.508 584.043 L947.907 589.823 L944.735 592.07 L941.963 593.444 L939.118 593.465 L937.73 592.508 L937.109 591.392 L936.818 590.016 L936.912 588.388 L938.512 585.375 L941.565 582.593 L942.463 582.565 L944.197 581.255 L946.18 580.543 L950.02 577.716 L957.708 573.211 L962.511 569.827 L965.104 567.291 L968.177 564.793 L969.173 564.321 L970.824 562.374 L968.91 565.991 L967.472 571.04 L966.682 575.503 L966.763 577.922 L967.477 578.029 L968.957 577.374 L970.233 576.626 L980.172 566.904 L984.638 563.485 L987.09 560.731 L987.847 559.433 "/></g><g><path fill="none" stroke="#000000" stroke-width="4" stroke-linecap="round" stroke-linejoin="round" d="M985.214 564.091 L985.982 564.317 L986.413 564.844 L986.233 566.45 L981.52 578.176 L982.151 576.503 L983.408 575.235 L988.03 567.99 L991.883 563.16 L994.256 560.75 L995.658 560.078 L996.897 558.84 L998.342 558.033 L999.859 558.119 L1001.21 558.978 L1002.36 560.16 L1002.88 561.534 L1002.76 564.025 L1001.27 567.992 L997.49 574.197 L997.266 574.95 L997.607 575.342 "/></g><g><path fill="none" stroke="#000000" stroke-width="4" stroke-linecap="round" stroke-linejoin="round" d="M1028.11 552.994 L1024.89 555.113 L1022.73 557.307 L1021.71 557.682 L1019.08 559.732 L1014.17 564.562 L1012.08 567.123 L1013.22 565.892 L1014.84 564.846 L1022.54 563.659 L1026.01 563.948 L1027.46 563.767 L1030.19 565.236 L1030.73 566.579 L1030.27 569.289 L1029.44 571.403 L1026.21 576.867 L1022.27 581.515 L1020.54 582.58 L1017.74 583.558 L1015.27 583.422 L1012.69 582.051 L1011.52 580.252 L1011.32 579.316 L1011.8 576.026 L1013.93 574.187 "/></g><g><path fill="none" stroke="#000000" stroke-width="4" stroke-linecap="round" stroke-linejoin="round" d="M1045.87 551.859 L1045.27 552.839 L1044.97 555.009 L1045.72 565.895 L1045.18 573.534 L1045.36 575.196 L1045.68 574.532 L1046.65 574.229 L1047.14 573.264 L1048.2 572.965 L1050.92 569.865 L1056.62 562.007 L1058.63 559.716 L1062.83 556.42 L1066.66 554.928 "/></g><g><path fill="none" stroke="#000000" stroke-width="4" stroke-linecap="round" stroke-linejoin="round" d="M1076.18 556.935 L1074.04 560.282 L1070.65 568.299 L1069.31 570.606 L1069.05 570.641 L1068.62 569.982 L1068.75 567.378 L1069.77 563.321 "/></g><g><path fill="none" stroke="#000000" stroke-width="4" stroke-linecap="round" stroke-linejoin="round" d="M1079.44 538.146 L1080.62 536.021 L1082.9 533.42 L1086 531.261 L1086.98 531.258 L1087.59 531.647 L1088.39 532.622 L1089.2 534.477 "/></g><g><path fill="none" stroke="#000000" stroke-width="4" stroke-linecap="round" stroke-linejoin="round" d="M1091.86 556.791 L1088.33 563.466 L1085.37 570.38 L1086.19 569.326 L1086.72 567.397 L1090.1 565.12 L1091.57 563.276 L1094.49 561.797 L1096.39 560.139 L1099.89 559.304 L1100.52 559.971 L1100.51 562.917 L1099.52 567.03 L1096.25 576.614 L1096.41 576.956 L1097.32 574.301 "/></g><g><path fill="none" stroke="#000000" stroke-width="4" stroke-linecap="round" stroke-linejoin="round" d="M1122.77 529.483 L1122 528.595 L1120.56 540.824 L1117.88 551.707 L1115.59 559.195 L1113.81 568.742 L1113.24 571.2 L1112.92 571.435 L1113.52 568.509 L1115.08 565.989 L1120.45 559.782 L1125.22 555.082 L1126.79 554.253 L1128.35 552.579 L1129.94 551.357 L1131.24 550.825 L1133.11 549.24 L1135.05 548.349 "/></g><g><path fill="none" stroke="#000000" stroke-width="4" stroke-linecap="round" stroke-linejoin="round" d="M1127.89 561.297 L1125.5 566.631 L1125.35 567.625 L1125.43 571.164 L1125.66 572.074 L1126.35 572.941 L1128.11 573.187 L1130.78 573.015 L1132.91 572.483 L1135.62 570.479 L1137.81 567.902 "/></g><g><path fill="none" stroke="#000000" stroke-width="4" stroke-linecap="round" stroke-linejoin="round" d="M1153.27 565.04 L1153.3 566.048 L1154.89 565.265 L1157.78 561.653 L1158.13 560.022 L1155.43 562.568 L1152.28 566.452 L1148.86 573.054 L1148.29 576.406 L1148.82 579.29 L1149.78 580.106 L1151.78 580.389 L1153.5 580.082 L1156.53 578.766 L1161.05 575.041 L1169.26 564.232 "/></g><g><path fill="none" stroke="#000000" stroke-width="4" stroke-linecap="round" stroke-linejoin="round" d="M1178.83 531.86 L1178.08 533.512 L1175.76 552.802 L1173.66 563.33 L1173.48 566.168 L1173.71 567.773 L1174.46 568.964 L1176.29 569.572 L1179.29 569.244 L1181.5 568.31 L1186.84 564.057 L1191.7 558.958 "/></g><g><path fill="none" stroke="#000000" stroke-width="4" stroke-linecap="round" stroke-linejoin="round" d="M797.53 630.25 L799.064 626.417 L802.092 620.386 L802.64 617.467 L798.829 620.322 L794.786 625.419 L792.39 629.796 L790.155 635.517 L789.096 639.639 L789.402 642.154 L790.527 642.975 L793.767 641.68 L797.346 639.76 L801.301 636.662 "/></g><g><path fill="none" stroke="#000000" stroke-width="4" stroke-linecap="round" stroke-linejoin="round" d="M823.215 590.072 L822.015 590.709 L820.91 591.875 L819.767 594.533 L816.295 608.159 L813.452 625.846 L813.427 630.132 L814.444 633.413 L815.362 633.847 L816.966 634.012 L820.285 632.938 L825.926 628.928 L829.663 624.487 L833.634 619.045 L836.684 614.018 L838.724 608.537 L839.195 604.668 L839.044 602.036 L838.667 600.591 L838.458 600.759 L837.645 599.965 L834.825 602.058 L831.485 606.887 L828.819 613.852 L827.849 617.845 L826.782 625.679 L826.8 631.155 L827.046 633.228 L828.095 636.723 L829.542 639.136 L830.048 639.084 L830.826 639.592 L832.125 639.529 L835.379 637.344 L838.13 633.493 L839.082 631.535 L839.856 628.818 L838.489 630.696 L837.458 633.177 L836.422 637.397 L836.349 639.547 L836.909 640.877 L837.666 641.346 L839.721 641.114 L840.835 640.59 L843.029 638.359 L845.328 635.388 L847.619 631.185 L851.784 625.618 L851.52 626.638 L849.557 628.615 L848.268 631.246 L847.831 632.946 L847.328 637.37 L847.737 639.65 L848.655 641.095 L848.167 640.018 L848.519 639.956 L852.181 633.853 L854.131 631.679 L856.062 628.746 L858.827 625.603 L859.609 625.402 L861.544 623.619 L864.011 622.552 L865.122 622.378 L867.505 622.746 L870.055 624.324 L871.263 625.946 L872.289 630.575 L872.849 630.888 "/></g><g><path fill="none" stroke="#000000" stroke-width="4" stroke-linecap="round" stroke-linejoin="round" d="M803.601 669.281 L802.225 666.13 L802 667.079 L799.756 669.802 L798.442 672.193 L794.369 681.62 L792.927 686.84 L793.288 688.285 L793.795 688.377 L794.821 689.303 L796.353 691.855 L802.543 698.132 L802.841 699.706 L801.739 702.294 L797.479 708.728 L795.233 709.424 L794.423 708.852 L792.646 708.917 L791.833 708.118 L790.063 707.551 L786.777 704.338 "/></g><g><path fill="none" stroke="#000000" stroke-width="4" stroke-linecap="round" stroke-linejoin="round" d="M809.784 695.024 L811.865 694.197 L816.37 693.501 L817.607 693.64 L819.16 693.011 L820.673 692.239 L821.205 691.558 L820.668 689.766 L819.731 688.579 L818.197 687.527 L816.952 688.102 L816.242 687.813 L813.571 690.955 L812.309 694.771 L811.912 699.575 L812.937 702.908 L814.276 704.654 L816.533 705.106 L818.295 704.512 L821.494 702.392 L825.963 698.428 L829.609 694.426 L832.424 690.353 L834.15 688.691 L835.325 688.125 L835.464 691.603 L835.074 695.094 L832.342 704.974 L832.459 705.333 L834.779 703.271 L839.535 697.501 L841.399 695.696 L847.655 691.559 L854.883 688.657 L856.84 687.532 L857.074 688.108 L855.239 693.768 L851.825 702.668 L851.268 704.988 L851.704 705.345 L854.936 701.838 L858.441 697.044 L862.692 693.232 L864.166 692.807 L864.888 692.122 L867.633 690.897 L869.118 691.078 L871.908 690.363 L872.511 690.981 L873.171 690.984 L873.206 692.018 L871.18 700.974 L868.32 710.525 "/></g><g><path fill="none" stroke="#000000" stroke-width="4" stroke-linecap="round" stroke-linejoin="round" d="M886.313 700.694 L884.646 703.416 L880.802 713.469 L880.736 708.696 "/></g><g><path fill="none" stroke="#000000" stroke-width="4" stroke-linecap="round" stroke-linejoin="round" d="M888.885 686.122 L889.71 683.475 L890.269 683.141 L891.584 681.008 L894.689 678.352 L898.866 673.455 "/></g><g><path fill="none" stroke="#000000" stroke-width="4" stroke-linecap="round" stroke-linejoin="round" d="M912.521 695.138 L910.036 693.941 L909.513 694.107 L910.333 694.75 L914.604 697.321 L916.943 698.373 L921.884 698.905 L923.114 698.824 L928.027 697.351 L930.504 696.141 L933.014 694.355 "/></g><g><path fill="none" stroke="#000000" stroke-width="4" stroke-linecap="round" stroke-linejoin="round" d="M957.327 667.302 L956.542 667.974 L956.223 669.057 L956.283 682.225 L955.603 690.017 L954.038 698.704 L951.571 706.199 L949.879 710.099 L948.141 713.323 L946.294 715.784 L946.829 714.393 L947.868 713.534 L948.548 712.093 L948.867 712.088 L950.158 710.596 L955.232 701.854 L963.689 691.687 L969.078 687.336 L970.81 685.514 "/></g><g><path fill="none" stroke="#000000" stroke-width="4" stroke-linecap="round" stroke-linejoin="round" d="M961.784 697.955 L961.279 699.911 L961.546 702.194 L964.52 717.666 L965.115 718.429 L966.364 718.866 L967.612 718.026 L968.862 716.471 "/></g><g><path fill="none" stroke="#000000" stroke-width="4" stroke-linecap="round" stroke-linejoin="round" d="M978.504 696.944 L980.8 701.888 L980.833 706.26 L976.589 714.875 L973.899 718.372 L971.96 719.703 L971.56 719.169 L971.3 719.607 L969.931 714.54 L970.306 706.29 L972.078 697.024 L973.435 693.768 L974.927 691.745 L977.081 690.623 L978.08 690.757 L979.74 691.57 L981.347 693.959 L982.068 697.853 L981.796 702.28 L979.918 707.608 L979.142 708.696 L976.182 715.604 "/></g><g><path fill="none" stroke="#000000" stroke-width="4" stroke-linecap="round" stroke-linejoin="round" d="M987.675 697.375 L988.638 697.907 L989.307 698.722 L989.929 701.926 L989.656 706.815 L987.785 717.819 L988.197 717.268 L988.378 715.877 L991.877 704.396 L993.872 699.145 L997.232 694.379 L999.835 691.999 L1000.6 692.125 L1000.86 692.836 L1000.64 698.698 L1000.86 702.117 L1000.35 708.851 L1000.5 710.76 L1001.11 712.214 L1001.7 712.322 L1001.78 712.649 L1001.93 712.033 L1002.08 712.393 L1002.54 711.678 L1002.79 711.845 L1003.93 711.258 L1005.56 709.349 L1007.56 705.825 L1007.99 704.404 "/></g><g><path fill="none" stroke="#000000" stroke-width="4" stroke-linecap="round" stroke-linejoin="round" d="M1007.86 696.409 L1007.45 697.392 L1007.46 698.499 L1010.14 710.696 L1011.11 717.639 L1011.45 718.062 L1012.63 718.244 L1015.03 716.072 L1017.13 712.812 L1023.05 697.933 L1026.25 691.751 L1027.21 690.698 "/></g><g><path fill="none" stroke="#000000" stroke-width="4" stroke-linecap="round" stroke-linejoin="round" d="M1024.3 707.615 L1023.82 708.859 L1024.11 709.765 L1024.75 710.08 L1025.48 709.991 L1026.96 708.99 L1028.78 706.693 L1030.82 702.574 L1032.33 698.397 L1032.99 694.784 L1032.84 693.789 L1032.44 693.324 L1030.54 698.178 L1029.46 702.38 L1028.4 710.387 L1028.33 717.555 L1028.85 719.927 L1029.55 721.374 L1030.73 722.165 L1031.87 722.002 L1034.53 720.484 L1037.1 718.129 L1040.46 713.321 L1042.73 708.879 "/></g><g><path fill="none" stroke="#000000" stroke-width="4" stroke-linecap="round" stroke-linejoin="round" d="M1051.07 699.808 L1049.24 703.737 L1046.8 710.977 L1045.53 716.348 L1045.33 718.925 L1045.29 717.743 L1043.78 716.378 L1043.3 714.55 L1043.7 709.789 L1044.55 705.9 L1045.54 703.249 L1048.31 699.36 L1049.93 698.04 L1053.48 696.28 L1058.27 694.419 "/></g><g><path fill="none" stroke="#000000" stroke-width="4" stroke-linecap="round" stroke-linejoin="round" d="M1070.08 696.587 L1068.45 697.889 L1066.32 701.302 L1063.51 708.875 L1062.58 712.81 L1062.84 713.752 L1065.9 712.288 L1067.92 710.583 L1069.88 709.534 L1071.52 709.531 L1071.85 709.984 L1072.07 712.558 L1071.54 715.656 L1068.92 721.844 L1066.93 725.448 L1063.7 730.155 L1059.99 734.883 L1055.99 738.885 L1053.52 740.272 L1052.77 740.246 L1052.07 739.536 L1051.62 735.927 L1051.93 732.574 "/></g><g><path fill="none" stroke="#000000" stroke-width="4" stroke-linecap="round" stroke-linejoin="round" d="M1077.95 713.849 L1080.42 712.479 L1081.78 710.541 L1084.84 705.059 L1085.26 702.723 L1085.02 702.715 L1083.23 707.55 L1082.12 713.999 L1081.73 719.821 L1082.2 723.281 L1082.53 723.162 L1082.85 723.735 L1083.21 723.713 L1084.59 722.768 L1092.59 713.568 L1096.35 710.733 L1098.65 709.431 L1099.06 709.68 L1099.55 709.014 L1099.84 709.418 L1098.34 714.905 L1095.62 721.238 L1097.78 718.031 L1101.42 711.019 L1104.73 706.498 L1107.67 704.651 L1110.47 704.516 L1112.18 706.567 L1112.46 708.202 L1111.56 720.993 L1111.81 722.68 "/></g><g><path fill="none" stroke="#000000" stroke-width="4" stroke-linecap="round" stroke-linejoin="round" d="M1137.89 703.462 L1138.43 703.258 L1138.29 703.636 L1137.63 703.404 L1135.29 703.991 L1132.36 706.198 L1128.23 711.58 L1126.61 714.724 L1126.33 716.018 L1126.5 716.587 L1127.71 717.171 L1132.9 718.475 L1134.73 720.147 L1135.61 721.379 L1135.82 722.922 L1135.54 724.361 L1134.38 727.048 L1131.86 729.755 L1130 730.543 L1128.34 730.529 L1127.21 730.119 L1125.63 728.607 L1124.77 725.435 "/></g><g><path fill="none" stroke="#000000" stroke-width="4" stroke-linecap="round" stroke-linejoin="round" d="M1143.88 706.587 L1146.81 717.189 L1148.09 724.767 L1148.37 729.923 L1148.83 730.329 L1150.82 728.359 L1153.34 725.01 L1158 715.676 L1160.21 712.785 L1161.39 710.566 L1165.09 707.159 L1166.59 706.274 "/></g><g><path fill="none" stroke="#000000" stroke-width="4" stroke-linecap="round" stroke-linejoin="round" d="M1170.61 719.102 L1167.11 726.87 L1166.21 730.357 L1167.57 726.161 L1169 719.029 "/></g><g><path fill="none" stroke="#000000" stroke-width="4" stroke-linecap="round" stroke-linejoin="round" d="M1172.68 686.058 L1173.3 682.461 L1173.94 681.766 L1174.85 681.788 L1176.68 683.326 L1177.96 685.267 L1180.71 688.369 "/></g><g><path fill="none" stroke="#000000" stroke-width="4" stroke-linecap="round" stroke-linejoin="round" d="M1187.76 715.521 L1186.1 719.407 L1184.63 724.088 L1184.07 727.453 L1183.59 728.199 L1183.69 726.226 L1186.46 721.753 L1190.36 717.247 L1193.09 715.093 L1196.05 713.701 L1198.09 713.505 L1200.34 713.815 L1203.15 715.248 L1204.05 717.172 L1203.77 720.376 L1200.97 730.465 L1200.6 733.451 "/></g><g><path fill="none" stroke="#000000" stroke-width="4" stroke-linecap="round" stroke-linejoin="round" d="M1220.86 681.509 L1219.56 683.395 L1218.35 686.678 L1217.22 699.248 L1216.11 705.767 L1212.83 720.624 L1212.57 724.59 L1212.9 723.779 L1212.84 722.354 L1214.28 719.225 L1218.24 711.605 L1220.47 708.147 L1225.15 702.353 L1228.36 700.027 L1231.05 698.807 "/></g><g><path fill="none" stroke="#000000" stroke-width="4" stroke-linecap="round" stroke-linejoin="round" d="M1228.33 715.371 L1226.6 717.855 L1225.2 721.743 L1225 724.007 L1225.84 725.522 L1226.09 725.836 L1226.36 725.554 L1230.76 725.303 L1232.82 724.504 L1234.54 723.125 "/></g><g><path fill="none" stroke="#000000" stroke-width="4" stroke-linecap="round" stroke-linejoin="round" d="M1244.47 716.14 L1244.26 716.202 L1244.4 715.888 L1245.44 715.373 L1248.07 712.056 L1249.84 709.04 L1250.75 708.033 L1252.31 704.099 L1252.25 703.347 L1250.77 705.395 L1249.47 708.118 L1245.1 719.724 L1243.23 727.333 L1243.04 731.3 L1243.77 732.798 L1244.97 733.464 L1246.81 733.512 L1247.82 733.074 L1251.63 730.008 L1255.65 725.163 "/></g><g><path fill="none" stroke="#000000" stroke-width="4" stroke-linecap="round" stroke-linejoin="round" d="M1274.12 683.145 L1271.63 687.367 L1266.32 698.546 L1264.12 702.512 L1259.29 717.948 L1258.67 721.823 L1258.98 723.901 L1259.59 724.635 L1261.3 724.891 L1262.3 724.189 L1264.9 723.622 L1270.9 720.82 L1278.4 715.301 L1282.78 711.142 L1285.08 709.714 "/></g>
</svg>